<svg width="57" height="64" viewBox="0 0 57 64" fill="none" xmlns="http://www.w3.org/2000/svg">
<path d="M54.6178 24.0279L32.7475 2.15757C30.4866 -0.103443 26.8074 -0.103572 24.5462 2.15757C22.5136 4.19003 22.3386 7.28984 23.8396 9.50328L23.8091 9.65552C22.2324 17.5401 18.3937 24.7129 12.7078 30.3987L2.67643 40.43C0.410002 42.6966 0.409615 46.3647 2.67643 48.6313L8.14385 54.0987C10.4101 56.3652 14.0785 56.3653 16.3451 54.0987L17.712 52.7318L27.2802 62.3C29.5466 64.5665 33.2148 64.5667 35.4813 62.3C37.7425 60.039 37.7425 56.3599 35.4813 54.0989L31.3807 49.9982L32.7476 48.6313C35.014 46.365 35.0143 42.6969 32.7476 40.4302L31.8187 39.5011C36.3883 36.3018 41.5779 34.0745 47.12 32.966L47.2742 32.9352C49.5368 34.4628 52.6294 34.2173 54.6178 32.2289H54.6179C56.8787 29.968 56.8787 26.289 54.6178 24.0279ZM13.6114 51.365C12.856 52.1203 11.6329 52.1204 10.8776 51.3649L5.41014 45.8975C4.65462 45.1418 4.65462 43.9193 5.41014 43.1637L14.9782 33.5956L23.1794 41.7968C22.2433 42.7329 14.5706 50.4057 13.6114 51.365ZM32.7475 56.8324C33.5011 57.586 33.5011 58.8124 32.7475 59.5661C31.9939 60.3197 30.7674 60.3197 30.0138 59.5661L20.4456 49.998L23.1794 47.2643L32.7475 56.8324ZM25.9132 44.5305C26.4943 43.9494 27.3641 43.0593 28.737 41.8868L30.0138 43.1637C30.7693 43.9193 30.7693 45.1418 30.0138 45.8975L28.6469 47.2644L25.9132 44.5305ZM25.9953 39.1454L17.6295 30.7796C22.1127 25.6029 25.3233 19.4921 27.0409 12.8534L43.9214 29.7339C37.2828 31.4515 31.1721 34.662 25.9953 39.1454ZM51.8837 29.4951C51.1282 30.2505 49.9055 30.2505 49.15 29.4951L27.2799 7.62499C26.5244 6.86934 26.5244 5.6468 27.2799 4.89128C28.0355 4.13576 29.2583 4.13576 30.0138 4.89128L51.8837 26.7612C52.6373 27.5149 52.6373 28.7412 51.8837 29.4951Z" fill="#3B5998"/>
</svg>
